<svg version="1.1" xmlns="http://www.w3.org/2000/svg" xmlns:xlink="http://www.w3.org/1999/xlink" width="982.54808" height="540.36166" viewBox="0,0,982.54808,540.36166"><g transform="translate(12.71199,0.02482)"><g data-paper-data="{&quot;isPaintingLayer&quot;:true}" fill-rule="nonzero" stroke-linecap="butt" stroke-linejoin="miter" stroke-miterlimit="10" stroke-dasharray="" stroke-dashoffset="0" style="mix-blend-mode: normal"><path d="M-1.30031,0.97721h964.03773v429.19325l-962.12576,-22.19965z" fill="#99ffff" stroke="#ccffff" stroke-width="2.00406"/><path d="M890.57474,367.16261c24.1591,-0.79131 51.35143,6.28354 66.15369,20.04933c15.76134,14.59122 11.44256,36.35328 10.11082,54.81573c0.64998,18.99781 3.31346,40.75772 -12.13299,56.20211c-14.2707,14.30541 -40.26419,24.746 -64.13152,24.63509c-35.50633,-0.16423 -75.96119,-8.7236 -102.10779,-22.81571c-26.1466,-14.09425 -42.33257,-33.55704 -42.33257,-55.03541c0,-21.47838 16.18597,-40.94116 42.33257,-55.03541c26.1466,-14.09212 66.62745,-21.67461 102.10779,-22.81571z" fill="#00cc44" stroke="#00cc44" stroke-width="2.88236"/><path d="M158.99311,352.58484c30.90493,0 58.90868,5.69704 79.18562,14.90006c20.27694,9.20441 32.82934,21.9148 32.82934,35.94149c0,14.02669 -12.5524,26.73708 -32.82934,35.94149c-20.27694,9.20301 -48.28069,14.90006 -79.18562,14.90006c-30.90493,0 -58.90868,-5.69704 -79.18562,-14.90006c-20.27694,-9.20441 -32.82934,-21.9148 -32.82934,-35.94149c0,-14.02669 12.5524,-26.73708 32.82934,-35.94149c20.27694,-9.20302 48.28069,-14.90006 79.18562,-14.90006z" fill="#00cc44" stroke="#00cc44" stroke-width="2.06637"/><path d="M386.44838,341.18902c39.8511,0 75.96118,8.72359 102.10778,22.81571c26.1466,14.09425 42.33258,33.55704 42.33258,55.03541c0,21.47838 -16.18598,40.94116 -42.33258,55.03541c-26.1466,14.09212 -62.25668,22.81571 -102.10778,22.81571c-39.8511,0 -75.96119,-8.7236 -102.10779,-22.81571c-26.1466,-14.09425 -42.33257,-33.55704 -42.33257,-55.03541c0,-21.47838 16.18597,-40.94116 42.33257,-55.03541c26.1466,-14.09212 62.25669,-22.81571 102.10779,-22.81571z" fill="#00cc44" stroke="#00cc44" stroke-width="2.88236"/><path d="M643.02163,353.02883c39.8511,0 75.96118,8.72359 102.10778,22.81571c26.1466,14.09425 42.33258,33.55704 42.33258,55.03541c0,21.47838 -16.18598,40.94116 -42.33258,55.03541c-26.1466,14.09212 -62.25668,22.81571 -102.10778,22.81571c-39.8511,0 -75.96119,-8.7236 -102.10779,-22.81571c-26.1466,-14.09425 -42.33257,-33.55704 -42.33257,-55.03541c0,-21.47838 16.18597,-40.94116 42.33257,-55.03541c26.1466,-14.09212 62.25669,-22.81571 102.10779,-22.81571z" fill="#00cc44" stroke="#00cc44" stroke-width="2.88236"/><path d="M-5.41326,363.56714c11.91709,-4.75542 32.46975,15.27475 45.27847,28.41137c9.65219,9.87719 20.57653,22.17806 20.57653,35.94149c0,13.76344 -8.08234,29.96447 -20.57653,35.94149l-41.27662,-5.57586l-1.96582,-51.74695c-0.64451,-17.23181 -11.74016,-40.44619 -2.03603,-42.97155z" fill="#00cc44" stroke="#00cc44" stroke-width="1.65924"/><path d="M2.60842,413.89072l942.10493,-4.43993l16.03583,88.7986l-962.14972,7.39988z" fill="#00cc44" stroke="#00cc44" stroke-width="2"/><path d="M-11.39793,502.12203h972.12203v36.90076h-972.12203z" fill="#663b00" stroke="#663b00" stroke-width="2.62812"/></g></g></svg>